# xmcd
#
# Track frame offsets:
#	150
#	9842
#	21675
#	35492
#	46815
#	59672
#	73172
#	84780
#	98007
#	111015
#	122590
#	135242
#	148205
#	169192
#	182612
#	196455
#	209550
#	223227
#
# Disc length: 3105 seconds
#
# Revision: 3
# Processed by: cddbd v1.4PL0 Copyright (c) Steve Scherf et al.
# Submitted via: audiograbber 1.82.02
#
DISCID=070c1f12
DTITLE=Diafori - To neo kima - Ta oreotera tragoudia
DYEAR=1995
DGENRE=Folk
TTITLE0=Aspra karavia - Mixalis Violaris, Keti Xomata
TTITLE1=Na diokso ta sinefa - Keti Xomata
TTITLE2=Ela mazi mou - Lakis Papas
TTITLE3=Mia fora thimame - Arleta
TTITLE4=Mikro pedi - Giorgos Zografos
TTITLE5=Mi mou thimonis matia mou - Gianis Poulopoulos
TTITLE6=Ta karavakia - Keti Xomata
TTITLE7=O Irlandos kai o Ioudeos - Giorgos Zografos
TTITLE8=Touto to proi - Mixalis Violaris
TTITLE9=Hrthes Pses - Gianis Poulopoulos
TTITLE10=Mia giorti - Popi Asteriadi
TTITLE11=To petrino xamogelo - Arleta
TTITLE12=Mi kourastis na m'agapas - Lakis Papas
TTITLE13=Ki an s'agapo de s'orizo - Keti Xomata
TTITLE14=Ta koritsia pigenoun dio dio - Dionisis Savopoulos
TTITLE15=Tis adies nixtes - Arleta
TTITLE16=T'omorfo nisi - Giorgos Zografos
TTITLE17=Mia agapi gia to kalokeri - Keti Xomata
EXTD=
EXTT0=
EXTT1=
EXTT2=
EXTT3=
EXTT4=
EXTT5=
EXTT6=
EXTT7=
EXTT8=
EXTT9=
EXTT10=
EXTT11=
EXTT12=
EXTT13=
EXTT14=
EXTT15=
EXTT16=
EXTT17=
PLAYORDER=
